<svg width="260" height="120" viewBox="0 0 260 120" fill="none" xmlns="http://www.w3.org/2000/svg">
<mask id="mask0_1470_3363" style="mask-type:luminance" maskUnits="userSpaceOnUse" x="27" y="38" width="206" height="44">
<path d="M27.2891 38.1016H232.711V81.8971H27.2891V38.1016Z" fill="white"></path>
</mask>
<g mask="url(#mask0_1470_3363)">
<path d="M189.932 72.0778C189.95 73.3331 189.719 74.5796 189.252 75.7448C188.784 76.91 188.09 77.9706 187.208 78.8649C186.327 79.7592 185.277 80.4694 184.119 80.9542C182.961 81.4389 181.718 81.6886 180.462 81.6886C179.207 81.6886 177.964 81.4389 176.806 80.9542C175.648 80.4694 174.598 79.7592 173.716 78.8649C172.835 77.9706 172.141 76.91 171.673 75.7448C171.206 74.5796 170.975 73.3331 170.993 72.0778C171.03 69.5907 172.044 67.218 173.816 65.4723C175.588 63.7266 177.975 62.748 180.462 62.748C182.95 62.748 185.337 63.7266 187.109 65.4723C188.881 67.218 189.895 69.5907 189.932 72.0778Z" fill="#ED2724"></path>
<path d="M211.3 72.0757C211.3 74.5874 210.302 76.9962 208.526 78.7722C206.75 80.5482 204.341 81.546 201.83 81.546C199.318 81.546 196.909 80.5482 195.133 78.7722C193.357 76.9962 192.359 74.5874 192.359 72.0757C192.359 69.5641 193.357 67.1553 195.133 65.3792C196.909 63.6032 199.318 62.6055 201.83 62.6055C204.341 62.6055 206.75 63.6032 208.526 65.3792C210.302 67.1553 211.3 69.5641 211.3 72.0757Z" fill="#F9AF0D"></path>
<path d="M232.663 72.0757C232.663 74.5874 231.665 76.9962 229.889 78.7722C228.113 80.5482 225.705 81.546 223.193 81.546C220.681 81.546 218.272 80.5482 216.496 78.7722C214.72 76.9962 213.723 74.5874 213.723 72.0757C213.723 69.5641 214.72 67.1553 216.496 65.3792C218.272 63.6032 220.681 62.6055 223.193 62.6055C225.705 62.6055 228.113 63.6032 229.889 65.3792C231.665 67.1553 232.663 69.5641 232.663 72.0757Z" fill="#3E8BD1"></path>
<path d="M43.0429 62.5621H36.7916V81.1449H29.8897V62.5631H27.2891V56.6674H29.8897V48.8249C29.8897 45.2785 30.8407 42.6309 32.6905 40.8812C34.5414 39.0824 36.7916 38.1836 39.4423 38.1836C40.7927 38.1836 41.9929 38.4339 43.0429 38.9823V45.2274C41.8928 44.6267 40.8928 44.3285 39.9428 44.3285C37.6915 44.3285 36.7916 45.876 36.7916 49.8238V56.6663H43.0429V62.5621ZM46.2463 81.146V56.6674H53.1482V60.3639C54.8479 57.3671 57.1993 55.8686 60.2494 55.8686C61.1993 55.8686 62.2004 56.0668 63.2504 56.4672L62.3005 62.9114C61.2494 62.3619 60.1493 62.0626 58.9991 62.0626C55.0992 62.0626 53.1482 64.511 53.1482 69.4056V81.147H46.2452L46.2463 81.146ZM83.1023 64.1116C81.7519 62.7623 80.1513 62.0626 78.3004 62.0626C76.3505 62.0626 74.7499 62.7122 73.3995 64.0605C72.0992 65.4088 71.4496 67.0083 71.4496 68.9072C71.4496 70.805 72.0992 72.4035 73.3995 73.7529C74.7499 75.1011 76.3505 75.7508 78.3004 75.7508C80.1513 75.7508 81.7519 75.1011 83.1023 73.7529C84.4527 72.4035 85.1523 70.805 85.1523 68.9562C85.1523 67.0584 84.4527 65.4599 83.1023 64.1116ZM84.4026 56.6663H91.3046V81.147H84.4016V77.9489C82.3025 80.5964 79.6518 81.8957 76.4016 81.8957C72.9501 81.8957 70.0992 80.6465 67.7989 78.1491C65.4986 75.6507 64.3484 72.5537 64.3484 68.8571C64.3484 65.2096 65.4986 62.1126 67.7488 59.6152C69.9991 57.1168 72.851 55.8686 76.2514 55.8686C79.4026 55.8686 82.1534 57.1669 84.4036 59.8144V56.6674L84.4026 56.6663ZM115.262 64.1116C113.51 62.7623 111.61 62.0626 109.66 62.0626C105.659 62.0626 102.658 64.9103 102.658 68.9072C102.658 72.903 105.659 75.7508 109.66 75.7508C111.61 75.7508 113.511 75.0521 115.262 73.7028V80.4473C113.111 81.3952 111.01 81.8957 108.96 81.8957C105.109 81.8957 101.908 80.6465 99.3567 78.1981C96.8072 75.7508 95.5569 72.6538 95.5569 69.0063C95.5569 65.2597 96.8562 62.1627 99.4078 59.6643C102.008 57.1168 105.209 55.8686 109.061 55.8686C111.311 55.8686 113.361 56.3681 115.262 57.3671V64.1116ZM121.561 62.5621H118.86V56.6674H121.561V48.3254H128.462V56.6674H133.264V62.5621H128.462V69.8561C128.462 74.0521 129.063 75.8519 131.463 75.8519C131.813 75.8519 132.264 75.7998 132.713 75.7518V81.7455C131.964 81.8456 130.964 81.8957 129.812 81.8957C124.611 81.8957 121.561 78.099 121.561 72.3045V62.5621ZM154.116 64.1116C152.764 62.7623 151.165 62.0626 149.315 62.0626C147.364 62.0626 145.763 62.7122 144.413 64.0605C143.112 65.4088 142.463 67.0083 142.463 68.9072C142.463 70.805 143.112 72.4035 144.413 73.7529C145.763 75.1011 147.364 75.7508 149.315 75.7508C151.165 75.7508 152.764 75.1011 154.116 73.7529C155.466 72.4035 156.166 70.805 156.166 68.9562C156.166 67.0584 155.466 65.4599 154.116 64.1116ZM155.416 56.6663H162.318V81.147H155.416V77.9489C153.316 80.5964 150.664 81.8957 147.414 81.8957C143.963 81.8957 141.112 80.6465 138.811 78.1491C136.511 75.6507 135.361 72.5537 135.361 68.8571C135.361 65.2096 136.511 62.1126 138.761 59.6152C141.012 57.1168 143.862 55.8686 147.264 55.8686C150.414 55.8686 153.165 57.1669 155.416 59.8144V56.6663ZM177.574 75.853C175.175 75.853 174.377 73.903 174.377 69.854V38.7821H167.474V72.0052C167.474 77.9989 170.372 81.8947 176.227 81.8947C176.977 81.8947 177.775 81.8467 178.529 81.7435V75.7497C178.078 75.7987 177.726 75.853 177.574 75.853Z" fill="#484C57"></path>
</g>
</svg>